<mxfile host="app.diagrams.net" agent="Mozilla/5.0 (Macintosh; Intel Mac OS X 10_15_7) AppleWebKit/537.36 (KHTML, like Gecko) Chrome/138.0.0.0 Safari/537.36" version="27.2.0">
  <diagram id="C5RBs43oDa-KdzZeNtuy" name="Page-1">
    <mxGraphModel dx="1426" dy="681" grid="1" gridSize="10" guides="1" tooltips="1" connect="1" arrows="1" fold="1" page="1" pageScale="1" pageWidth="827" pageHeight="1169" math="0" shadow="0">
      <root>
        <mxCell id="WIyWlLk6GJQsqaUBKTNV-0" />
        <mxCell id="WIyWlLk6GJQsqaUBKTNV-1" parent="WIyWlLk6GJQsqaUBKTNV-0" />
        <mxCell id="Sh7mwxDTZ3OkmaJjOXUG-0" value="Yes" style="rounded=0;html=1;jettySize=auto;orthogonalLoop=1;fontSize=11;endArrow=block;endFill=0;endSize=8;strokeWidth=1;shadow=0;labelBackgroundColor=none;edgeStyle=orthogonalEdgeStyle;entryX=0.5;entryY=0;entryDx=0;entryDy=0;" edge="1" parent="WIyWlLk6GJQsqaUBKTNV-1" source="Sh7mwxDTZ3OkmaJjOXUG-2" target="Sh7mwxDTZ3OkmaJjOXUG-14">
          <mxGeometry y="20" relative="1" as="geometry">
            <mxPoint as="offset" />
            <mxPoint x="260" y="460" as="targetPoint" />
          </mxGeometry>
        </mxCell>
        <mxCell id="Sh7mwxDTZ3OkmaJjOXUG-18" style="edgeStyle=orthogonalEdgeStyle;rounded=0;orthogonalLoop=1;jettySize=auto;html=1;entryX=0.5;entryY=0;entryDx=0;entryDy=0;" edge="1" parent="WIyWlLk6GJQsqaUBKTNV-1" source="Sh7mwxDTZ3OkmaJjOXUG-2" target="Sh7mwxDTZ3OkmaJjOXUG-17">
          <mxGeometry relative="1" as="geometry" />
        </mxCell>
        <mxCell id="Sh7mwxDTZ3OkmaJjOXUG-21" value="No" style="edgeLabel;html=1;align=center;verticalAlign=middle;resizable=0;points=[];" vertex="1" connectable="0" parent="Sh7mwxDTZ3OkmaJjOXUG-18">
          <mxGeometry x="-0.6421" y="2" relative="1" as="geometry">
            <mxPoint as="offset" />
          </mxGeometry>
        </mxCell>
        <mxCell id="Sh7mwxDTZ3OkmaJjOXUG-2" value="遍历violation ranges，检查是否有重叠区域？" style="rhombus;whiteSpace=wrap;html=1;shadow=0;fontFamily=Helvetica;fontSize=12;align=center;strokeWidth=1;spacing=6;spacingTop=-4;" vertex="1" parent="WIyWlLk6GJQsqaUBKTNV-1">
          <mxGeometry x="200" y="332" width="120" height="96" as="geometry" />
        </mxCell>
        <mxCell id="Sh7mwxDTZ3OkmaJjOXUG-3" value="" style="rounded=0;html=1;jettySize=auto;orthogonalLoop=1;fontSize=11;endArrow=block;endFill=0;endSize=8;strokeWidth=1;shadow=0;labelBackgroundColor=none;edgeStyle=orthogonalEdgeStyle;exitX=1;exitY=0.5;exitDx=0;exitDy=0;entryX=0;entryY=0.5;entryDx=0;entryDy=0;" edge="1" parent="WIyWlLk6GJQsqaUBKTNV-1" source="Sh7mwxDTZ3OkmaJjOXUG-14" target="Sh7mwxDTZ3OkmaJjOXUG-16">
          <mxGeometry x="0.3333" y="20" relative="1" as="geometry">
            <mxPoint as="offset" />
            <mxPoint x="260" y="540" as="sourcePoint" />
            <mxPoint x="260" y="570" as="targetPoint" />
          </mxGeometry>
        </mxCell>
        <mxCell id="Sh7mwxDTZ3OkmaJjOXUG-4" value="" style="edgeStyle=orthogonalEdgeStyle;rounded=0;orthogonalLoop=1;jettySize=auto;html=1;" edge="1" parent="WIyWlLk6GJQsqaUBKTNV-1" source="Sh7mwxDTZ3OkmaJjOXUG-5" target="Sh7mwxDTZ3OkmaJjOXUG-7">
          <mxGeometry relative="1" as="geometry" />
        </mxCell>
        <mxCell id="Sh7mwxDTZ3OkmaJjOXUG-5" value="开始" style="ellipse;whiteSpace=wrap;html=1;" vertex="1" parent="WIyWlLk6GJQsqaUBKTNV-1">
          <mxGeometry x="220" y="50" width="80" height="80" as="geometry" />
        </mxCell>
        <mxCell id="Sh7mwxDTZ3OkmaJjOXUG-6" style="edgeStyle=orthogonalEdgeStyle;rounded=0;orthogonalLoop=1;jettySize=auto;html=1;entryX=0.5;entryY=0;entryDx=0;entryDy=0;" edge="1" parent="WIyWlLk6GJQsqaUBKTNV-1" source="Sh7mwxDTZ3OkmaJjOXUG-7" target="Sh7mwxDTZ3OkmaJjOXUG-9">
          <mxGeometry relative="1" as="geometry">
            <mxPoint x="260" y="210" as="targetPoint" />
          </mxGeometry>
        </mxCell>
        <mxCell id="Sh7mwxDTZ3OkmaJjOXUG-7" value="收集历史帧数据&lt;br&gt;（当前帧+历史n帧 violation ranges）" style="rounded=1;whiteSpace=wrap;html=1;" vertex="1" parent="WIyWlLk6GJQsqaUBKTNV-1">
          <mxGeometry x="195" y="150" width="130" height="60" as="geometry" />
        </mxCell>
        <mxCell id="Sh7mwxDTZ3OkmaJjOXUG-8" value="" style="group" vertex="1" connectable="0" parent="WIyWlLk6GJQsqaUBKTNV-1">
          <mxGeometry x="100" y="250" width="330" height="70" as="geometry" />
        </mxCell>
        <mxCell id="Sh7mwxDTZ3OkmaJjOXUG-9" value="" style="rounded=1;whiteSpace=wrap;html=1;" vertex="1" parent="Sh7mwxDTZ3OkmaJjOXUG-8">
          <mxGeometry x="-10" y="-10" width="340" height="70" as="geometry" />
        </mxCell>
        <mxCell id="Sh7mwxDTZ3OkmaJjOXUG-10" value="第n-2 帧" style="whiteSpace=wrap;html=1;movable=1;resizable=1;rotatable=1;deletable=1;editable=1;locked=0;connectable=1;" vertex="1" parent="Sh7mwxDTZ3OkmaJjOXUG-8">
          <mxGeometry width="90" height="45" as="geometry" />
        </mxCell>
        <mxCell id="Sh7mwxDTZ3OkmaJjOXUG-11" value="第n-1 帧" style="whiteSpace=wrap;html=1;movable=1;resizable=1;rotatable=1;deletable=1;editable=1;locked=0;connectable=1;" vertex="1" parent="Sh7mwxDTZ3OkmaJjOXUG-8">
          <mxGeometry x="110" width="90" height="45" as="geometry" />
        </mxCell>
        <mxCell id="Sh7mwxDTZ3OkmaJjOXUG-12" value="当前帧" style="whiteSpace=wrap;html=1;movable=1;resizable=1;rotatable=1;deletable=1;editable=1;locked=0;connectable=1;" vertex="1" parent="Sh7mwxDTZ3OkmaJjOXUG-8">
          <mxGeometry x="220" width="90" height="45" as="geometry" />
        </mxCell>
        <mxCell id="Sh7mwxDTZ3OkmaJjOXUG-14" value="合并重叠区域" style="rounded=1;whiteSpace=wrap;html=1;" vertex="1" parent="WIyWlLk6GJQsqaUBKTNV-1">
          <mxGeometry x="40" y="470" width="120" height="60" as="geometry" />
        </mxCell>
        <mxCell id="Sh7mwxDTZ3OkmaJjOXUG-15" style="edgeStyle=orthogonalEdgeStyle;rounded=0;orthogonalLoop=1;jettySize=auto;html=1;exitX=0.5;exitY=1;exitDx=0;exitDy=0;entryX=0.5;entryY=0;entryDx=0;entryDy=0;" edge="1" parent="WIyWlLk6GJQsqaUBKTNV-1" source="Sh7mwxDTZ3OkmaJjOXUG-9" target="Sh7mwxDTZ3OkmaJjOXUG-2">
          <mxGeometry relative="1" as="geometry" />
        </mxCell>
        <mxCell id="Sh7mwxDTZ3OkmaJjOXUG-23" value="" style="edgeStyle=orthogonalEdgeStyle;rounded=0;orthogonalLoop=1;jettySize=auto;html=1;" edge="1" parent="WIyWlLk6GJQsqaUBKTNV-1" source="Sh7mwxDTZ3OkmaJjOXUG-16" target="Sh7mwxDTZ3OkmaJjOXUG-22">
          <mxGeometry relative="1" as="geometry" />
        </mxCell>
        <mxCell id="Sh7mwxDTZ3OkmaJjOXUG-16" value="更新合并后的violation ranges" style="rounded=1;whiteSpace=wrap;html=1;" vertex="1" parent="WIyWlLk6GJQsqaUBKTNV-1">
          <mxGeometry x="200" y="470" width="120" height="60" as="geometry" />
        </mxCell>
        <mxCell id="Sh7mwxDTZ3OkmaJjOXUG-19" style="edgeStyle=orthogonalEdgeStyle;rounded=0;orthogonalLoop=1;jettySize=auto;html=1;entryX=1;entryY=0.5;entryDx=0;entryDy=0;exitX=0;exitY=0.5;exitDx=0;exitDy=0;" edge="1" parent="WIyWlLk6GJQsqaUBKTNV-1" source="Sh7mwxDTZ3OkmaJjOXUG-17" target="Sh7mwxDTZ3OkmaJjOXUG-16">
          <mxGeometry relative="1" as="geometry">
            <mxPoint x="420" y="520" as="sourcePoint" />
            <Array as="points">
              <mxPoint x="420" y="480" />
              <mxPoint x="420" y="500" />
            </Array>
          </mxGeometry>
        </mxCell>
        <mxCell id="Sh7mwxDTZ3OkmaJjOXUG-17" value="保持原有ranges" style="rounded=1;whiteSpace=wrap;html=1;" vertex="1" parent="WIyWlLk6GJQsqaUBKTNV-1">
          <mxGeometry x="380" y="470" width="120" height="60" as="geometry" />
        </mxCell>
        <mxCell id="Sh7mwxDTZ3OkmaJjOXUG-25" value="" style="edgeStyle=orthogonalEdgeStyle;rounded=0;orthogonalLoop=1;jettySize=auto;html=1;entryX=0.5;entryY=0;entryDx=0;entryDy=0;" edge="1" parent="WIyWlLk6GJQsqaUBKTNV-1" source="Sh7mwxDTZ3OkmaJjOXUG-22" target="Sh7mwxDTZ3OkmaJjOXUG-26">
          <mxGeometry relative="1" as="geometry">
            <mxPoint x="260" y="640" as="targetPoint" />
          </mxGeometry>
        </mxCell>
        <mxCell id="Sh7mwxDTZ3OkmaJjOXUG-22" value="根据violation ranges 进行constraint 放松" style="rounded=1;whiteSpace=wrap;html=1;" vertex="1" parent="WIyWlLk6GJQsqaUBKTNV-1">
          <mxGeometry x="200" y="555" width="120" height="60" as="geometry" />
        </mxCell>
        <mxCell id="Sh7mwxDTZ3OkmaJjOXUG-26" value="结束" style="ellipse;whiteSpace=wrap;html=1;rounded=1;" vertex="1" parent="WIyWlLk6GJQsqaUBKTNV-1">
          <mxGeometry x="220" y="650" width="80" height="80" as="geometry" />
        </mxCell>
      </root>
    </mxGraphModel>
  </diagram>
</mxfile>
